# xmcd
#
# Track frame offsets: 
#        150
#        16792
#        29773
#        52887
#        69261
#        82078
#        123412
#        163667
#        183591
#        202563
#
# Disc length: 2845 seconds
#
# Revision: 0
# Processed by: cddbd v1.5.2PL0 Copyright (c) Steve Scherf et al.
# Submitted via: ExactAudioCopy v0.95b4
#
DISCID=7a0b1b0a
DTITLE=Mariachi Arriba Juarez - Mariachi Clasico
DYEAR=2007
DGENRE=Latin
TTITLE0=Danza Hungara No. 5 - Brahms
TTITLE1=El Lago De Los Cisnes - Tchaikowsky
TTITLE2=La Dama Aragonesa - Odrid
TTITLE3=Las Bodas De Luis Alonso - Geronimo Jimenez
TTITLE4=Niño Perdido - Ramon Marquez
TTITLE5=Huapango - Pablo Moncayo
TTITLE6=Poeta Y Campesino - Von Suppe
TTITLE7=Vals De Las Flores - Tchaikowski
TTITLE8=Rondinela - Gregorio Cortes
TTITLE9=Cuerdas De Satin - Jose Martinez
EXTD=
EXTT0=
EXTT1=
EXTT2=
EXTT3=
EXTT4=
EXTT5=
EXTT6=
EXTT7=
EXTT8=
EXTT9=
PLAYORDER=
